<svg width="52" height="20" viewBox="0 0 52 20" fill="none" xmlns="http://www.w3.org/2000/svg">
<path d="M3.52074 14.33H4.78217C4.64944 15.2765 4.75182 16.2403 5.08063 17.1399H1.94396C1.61051 16.6749 1.30224 16.193 1.02041 15.6964C-0.725308 12.4787 -0.314214 8.08205 2.95198 5.94431C3.76289 5.39335 4.34855 5.47047 5.2721 5.47047C13.7586 -2.27057 32.083 -1.36699 40.7947 5.47047H45.863C47.1269 5.69548 48.3108 6.23387 49.3014 7.03418C50.292 7.8345 51.0563 8.87 51.5212 10.0417C51.9862 11.2135 52.1362 12.4823 51.957 13.7269C51.7777 14.9716 51.2753 16.1505 50.4976 17.1509H47.0624C47.3949 16.2521 47.4955 15.2869 47.3553 14.341H48.9489C50.0471 11.7349 48.0254 9.22254 45.6095 8.28039H4.55128C2.56904 9.58618 2.52962 12.4181 3.53763 14.341L3.52074 14.33ZM10.7458 10.2914C11.727 10.2914 12.6862 10.5761 13.5021 11.1095C14.318 11.6428 14.9539 12.4009 15.3294 13.2879C15.7049 14.1748 15.8031 15.1508 15.6117 16.0924C15.4203 17.034 14.9477 17.8989 14.2539 18.5777C13.5601 19.2565 12.6761 19.7189 11.7137 19.9061C10.7513 20.0934 9.75374 19.9973 8.8472 19.6299C7.94065 19.2625 7.16582 18.6404 6.62067 17.8421C6.07552 17.0439 5.78455 16.1054 5.78455 15.1454C5.78604 13.8585 6.30922 12.6247 7.23931 11.7147C8.1694 10.8047 9.43044 10.2929 10.7458 10.2914ZM10.7458 13.1013C10.3326 13.1013 9.92863 13.2212 9.58506 13.4458C9.24149 13.6704 8.97371 13.9897 8.81558 14.3632C8.65745 14.7367 8.61607 15.1477 8.69669 15.5442C8.7773 15.9407 8.97628 16.3049 9.26847 16.5908C9.56065 16.8767 9.93292 17.0713 10.3382 17.1502C10.7435 17.2291 11.1635 17.1886 11.5453 17.0339C11.9271 16.8792 12.2533 16.6172 12.4829 16.281C12.7125 15.9449 12.835 15.5497 12.835 15.1454C12.8335 14.6037 12.6129 14.0847 12.2215 13.7016C11.83 13.3186 11.2994 13.1028 10.7458 13.1013ZM41.3635 10.2914C42.3447 10.2914 43.3039 10.5761 44.1198 11.1095C44.9357 11.6428 45.5716 12.4009 45.9471 13.2879C46.3226 14.1748 46.4208 15.1508 46.2294 16.0924C46.038 17.034 45.5655 17.8989 44.8716 18.5777C44.1778 19.2565 43.2938 19.7189 42.3314 19.9061C41.369 20.0934 40.3715 19.9973 39.4649 19.6299C38.5584 19.2625 37.7835 18.6404 37.2384 17.8421C36.6932 17.0439 36.4023 16.1054 36.4023 15.1454C36.4052 13.8589 36.9289 12.626 37.8587 11.7163C38.7884 10.8067 40.0486 10.2943 41.3635 10.2914ZM41.3635 13.1013C40.9503 13.1013 40.5464 13.2212 40.2028 13.4458C39.8592 13.6704 39.5914 13.9897 39.4333 14.3632C39.2752 14.7367 39.2338 15.1477 39.3144 15.5442C39.395 15.9407 39.594 16.3049 39.8862 16.5908C40.1784 16.8767 40.5506 17.0713 40.9559 17.1502C41.3612 17.2291 41.7813 17.1886 42.163 17.0339C42.5448 16.8792 42.8711 16.6172 43.1006 16.281C43.3302 15.9449 43.4527 15.5497 43.4527 15.1454C43.4535 14.8768 43.3999 14.6106 43.2952 14.3623C43.1905 14.114 43.0366 13.8884 42.8425 13.6984C42.6483 13.5085 42.4177 13.3579 42.1639 13.2554C41.9101 13.153 41.6381 13.1006 41.3635 13.1013ZM10.0306 5.47047H35.5632C28.9858 2.15367 16.4672 1.81758 10.0306 5.47047ZM16.7376 14.33H35.3999C35.2672 15.2765 35.3695 16.2403 35.6983 17.1399H16.4391C16.7705 16.2409 16.873 15.2764 16.7376 14.33Z" fill="#3A3ADD"/>
</svg>
