<svg width="35" height="35" viewBox="0 0 35 35" fill="none" xmlns="http://www.w3.org/2000/svg">
<path d="M24.7811 14.5816C24.2935 14.5898 23.8069 14.6288 23.3242 14.6985V14.5816C23.3242 13.8085 23.0172 13.0671 22.4708 12.5204C21.9243 11.9738 21.1832 11.6667 20.4104 11.6667H18.9535V8.75171H20.4104C20.7936 8.75171 21.1731 8.67609 21.527 8.52917C21.881 8.38225 22.2025 8.16693 22.4732 7.89552C22.7439 7.62411 22.9583 7.30195 23.1043 6.9475C23.2504 6.59305 23.3251 6.21326 23.3242 5.82989V2.91495C23.3242 2.14186 23.0172 1.40042 22.4708 0.853766C21.9243 0.307107 21.1832 8.10947e-06 20.4104 8.10947e-06H7.2914C6.90818 -0.000896078 6.52852 0.0738193 6.17421 0.219904C5.8199 0.365989 5.49788 0.580564 5.22658 0.851332C4.95528 1.1221 4.74004 1.44374 4.59318 1.79784C4.44631 2.15195 4.37072 2.53157 4.37072 2.91495V5.82989H2.9138C2.53058 5.82989 2.15113 5.90551 1.79716 6.05243C1.44319 6.19935 1.12168 6.41468 0.851019 6.68608C0.580357 6.95749 0.365867 7.27965 0.219839 7.63411C0.0738113 7.98856 -0.000895729 8.36834 8.10405e-06 8.75171V11.6667C8.10405e-06 12.4398 0.307008 13.1812 0.853452 13.7278C1.3999 14.2745 2.14102 14.5816 2.9138 14.5816H4.37072V17.4966H2.9138C2.53058 17.4966 2.15113 17.5722 1.79716 17.7191C1.44319 17.866 1.12168 18.0813 0.851019 18.3527C0.580357 18.6242 0.365867 18.9463 0.219839 19.3008C0.0738113 19.6552 -0.000895729 20.035 8.10405e-06 20.4184V23.3333C8.10405e-06 23.7161 0.075378 24.0952 0.22181 24.4488C0.368243 24.8025 0.58288 25.1238 0.853452 25.3945C1.12402 25.6652 1.44523 25.8799 1.79875 26.0264C2.15227 26.1729 2.53116 26.2483 2.9138 26.2483H4.37072V29.1701C4.37072 29.5535 4.44631 29.9331 4.59318 30.2872C4.74004 30.6413 4.95528 30.963 5.22658 31.2337C5.49788 31.5045 5.8199 31.719 6.17421 31.8651C6.52852 32.0112 6.90818 32.086 7.2914 32.085H17.6546C18.8509 33.257 20.317 34.1164 21.9237 34.5876C23.5304 35.0589 25.2283 35.1274 26.8677 34.7872C28.5071 34.4469 30.0376 33.7084 31.3244 32.6367C32.6111 31.565 33.6145 30.1931 34.246 28.6419C34.8776 27.0906 35.118 25.4078 34.9459 23.7417C34.7739 22.0756 34.1947 20.4774 33.2595 19.0881C32.3242 17.6988 31.0617 16.5611 29.5831 15.7752C28.1045 14.9893 26.4554 14.5794 24.7811 14.5816ZM20.4104 14.5816V15.5853C19.3961 16.0683 18.4676 16.7139 17.6615 17.4966H7.2914V14.5816H20.4104ZM7.2914 2.89433H20.4104V5.80927H7.2914V2.89433ZM2.9138 11.646V8.73109H16.0397V11.646H2.9138ZM2.9138 23.3333V20.4184H15.5792C15.1411 21.3408 14.8423 22.3231 14.6927 23.3333H2.9138ZM7.2914 26.2483H14.6927C14.843 27.2605 15.1418 28.2451 15.5792 29.1701H7.2914V26.2483ZM24.7811 32.085C23.3384 32.085 21.9281 31.6569 20.7288 30.8548C19.5294 30.0527 18.5949 28.9127 18.0434 27.579C17.492 26.2454 17.3484 24.778 17.6308 23.3627C17.9133 21.9474 18.6091 20.6477 19.6302 19.6281C20.6513 18.6086 21.9518 17.9149 23.367 17.635C24.7823 17.3552 26.2488 17.5016 27.5809 18.0557C28.913 18.6099 30.0508 19.547 30.8503 20.7484C31.6499 21.9497 32.0752 23.3613 32.0725 24.8046C32.0688 26.7367 31.299 28.5885 29.932 29.9535C28.565 31.3184 26.7125 32.0851 24.7811 32.085Z" fill="#4438E0"/>
</svg>
