<svg width="32" height="38" viewBox="0 0 32 38" fill="none" xmlns="http://www.w3.org/2000/svg">
<path d="M30.5287 35.4187H29.2403V23.2395H30.5287C30.8291 23.2395 31.1171 23.121 31.3295 22.9099C31.5418 22.6988 31.6611 22.4125 31.6611 22.114C31.6611 21.8154 31.5418 21.5292 31.3295 21.3181C31.1171 21.107 30.8291 20.9884 30.5287 20.9884H29.1725C28.7385 14.7 23.239 9.67872 16.4511 9.44956V7.8724H21.8218C22.5437 7.8618 23.2326 7.56974 23.7399 7.05916C24.2473 6.54857 24.5325 5.86033 24.5342 5.1427V3.08027C24.5308 2.36317 24.245 1.67592 23.738 1.16571C23.231 0.655497 22.5431 0.362911 21.8218 0.350586H15.3187C15.0184 0.350586 14.7303 0.469176 14.5179 0.680262C14.3056 0.891349 14.1863 1.17763 14.1863 1.47615V9.56413C8.00192 10.3392 3.16018 15.1179 2.75332 21.0221H1.43778C1.13744 21.0221 0.849414 21.1407 0.637039 21.3518C0.424665 21.5629 0.305352 21.8492 0.305352 22.1477C0.305352 22.4462 0.424665 22.7325 0.637039 22.9436C0.849414 23.1547 1.13744 23.2732 1.43778 23.2732H2.72621V35.4659H1.43778C1.28216 35.4539 1.12572 35.474 0.978288 35.5249C0.830853 35.5759 0.695603 35.6566 0.581041 35.762C0.466478 35.8673 0.375067 35.9951 0.312553 36.1373C0.25004 36.2795 0.217773 36.4329 0.217773 36.5881C0.217773 36.7432 0.25004 36.8967 0.312553 37.0389C0.375067 37.181 0.466478 37.3088 0.581041 37.4142C0.695603 37.5196 0.830853 37.6003 0.978288 37.6512C1.12572 37.7022 1.28216 37.7223 1.43778 37.7103H30.4948C30.6504 37.7223 30.8069 37.7022 30.9543 37.6512C31.1017 37.6003 31.237 37.5196 31.3516 37.4142C31.4661 37.3088 31.5575 37.181 31.62 37.0389C31.6826 36.8967 31.7148 36.7432 31.7148 36.5881C31.7148 36.4329 31.6826 36.2795 31.62 36.1373C31.5575 35.9951 31.4661 35.8673 31.3516 35.762C31.237 35.6566 31.1017 35.5759 30.9543 35.5249C30.8069 35.474 30.6504 35.4539 30.4948 35.4659L30.5287 35.4187ZM26.9754 35.4187H21.164V23.2395H26.9754V35.4187ZM18.9127 23.2395V35.4322H13.1013V23.2395H18.9127ZM16.4918 2.60174H21.8624C21.9901 2.60174 22.1126 2.65215 22.2029 2.74189C22.2932 2.83164 22.3439 2.95335 22.3439 3.08027V5.1427C22.3448 5.20611 22.333 5.26906 22.3092 5.3279C22.2854 5.38674 22.2501 5.44029 22.2053 5.48544C22.1605 5.53059 22.1071 5.56645 22.0483 5.59091C21.9894 5.61538 21.9262 5.62799 21.8624 5.62798H16.4918V2.60174ZM16.0036 11.6805C21.7675 11.6805 26.5007 15.7919 26.9483 20.9884H5.05891C5.50646 15.7784 10.2397 11.667 15.9968 11.667L16.0036 11.6805ZM5.01822 23.2395H10.8296V35.4322H5.01822V23.2395Z" fill="#4438E0"/>
</svg>
