<svg width="36" height="37" viewBox="0 0 36 37" fill="none" xmlns="http://www.w3.org/2000/svg">
<g clip-path="url(#clip0)">
<path d="M34.2489 37.0001H1.58336C1.18076 36.974 0.803378 36.8002 0.527696 36.5138C0.252015 36.2274 0.0986328 35.8498 0.0986328 35.4576C0.0986328 35.0653 0.252015 34.6877 0.527696 34.4013C0.803378 34.1149 1.18076 33.941 1.58336 33.915H34.41C34.6211 33.9032 34.8324 33.9348 35.03 34.008C35.2276 34.0811 35.4071 34.1941 35.5566 34.3395C35.7061 34.4848 35.8223 34.6593 35.8975 34.8514C35.9728 35.0435 36.0054 35.2489 35.9932 35.4541C35.988 35.6686 35.9382 35.8797 35.8467 36.0749C35.7553 36.2701 35.624 36.4452 35.461 36.5897C35.298 36.7342 35.1065 36.845 34.8982 36.9156C34.6898 36.9861 34.469 37.0149 34.2489 37.0001Z" fill="#4438E0"/>
<path d="M31.0828 36.9998H4.75702C4.54529 37.0118 4.33338 36.98 4.13525 36.9064C3.93712 36.8329 3.75731 36.7193 3.60767 36.5732C3.45804 36.427 3.34199 36.2517 3.2672 36.0588C3.19242 35.8659 3.16058 35.6597 3.17382 35.4539V14.9551C3.16058 14.7493 3.19242 14.5432 3.2672 14.3502C3.34199 14.1573 3.45804 13.982 3.60767 13.8359C3.75731 13.6898 3.93712 13.5762 4.13525 13.5026C4.33338 13.4291 4.54529 13.3972 4.75702 13.4092H31.0828C31.2945 13.3972 31.5064 13.4291 31.7045 13.5026C31.9027 13.5762 32.0825 13.6898 32.2321 13.8359C32.3817 13.982 32.4978 14.1573 32.5726 14.3502C32.6474 14.5432 32.6792 14.7493 32.666 14.9551V35.4539C32.6669 35.6566 32.6266 35.8575 32.5474 36.045C32.4683 36.2325 32.3519 36.403 32.2048 36.5466C32.0576 36.6903 31.8828 36.8043 31.6903 36.882C31.4977 36.9598 31.2913 36.9998 31.0828 36.9998ZM6.34021 33.9148H29.4926V16.4942H6.34021V33.9148Z" fill="#4438E0"/>
<path d="M33.6184 16.4942H1.58336C1.18076 16.4682 0.803378 16.2944 0.527696 16.008C0.252015 15.7215 0.0986328 15.344 0.0986328 14.9517C0.0986328 14.5594 0.252015 14.1819 0.527696 13.8955C0.803378 13.609 1.18076 13.4352 1.58336 13.4092H33.6184C33.8301 13.3972 34.042 13.4291 34.2401 13.5026C34.4383 13.5762 34.6181 13.6898 34.7678 13.8359C34.9174 13.982 35.0334 14.1573 35.1082 14.3502C35.183 14.5432 35.2148 14.7493 35.2016 14.9551C35.1997 15.3628 35.0323 15.7532 34.7358 16.0414C34.4393 16.3297 34.0377 16.4924 33.6184 16.4942Z" fill="#4438E0"/>
<path d="M22.3604 37H13.4777C13.266 37.012 13.0541 36.9801 12.856 36.9066C12.6578 36.833 12.478 36.7194 12.3283 36.5733C12.1787 36.4272 12.0627 36.2519 11.9879 36.059C11.9131 35.866 11.8813 35.6599 11.8945 35.4541V26.3624C11.8945 24.8091 12.5293 23.3194 13.6591 22.221C14.7889 21.1227 16.3213 20.5056 17.9191 20.5056C19.5169 20.5056 21.0492 21.1227 22.179 22.221C23.3089 23.3194 23.9436 24.8091 23.9436 26.3624V35.4541C23.9436 35.8629 23.777 36.2551 23.4803 36.5448C23.1836 36.8345 22.7809 36.9982 22.3604 37ZM15.0609 33.915H20.7702V26.3624C20.7893 25.9864 20.7297 25.6105 20.5949 25.2576C20.4601 24.9047 20.2529 24.5821 19.986 24.3094C19.719 24.0367 19.3978 23.8195 19.0419 23.6712C18.686 23.5228 18.3028 23.4463 17.9156 23.4463C17.5283 23.4463 17.1451 23.5228 16.7892 23.6712C16.4333 23.8195 16.1121 24.0367 15.8451 24.3094C15.5782 24.5821 15.371 24.9047 15.2362 25.2576C15.1014 25.6105 15.0417 25.9864 15.0609 26.3624V33.915Z" fill="#4438E0"/>
<path d="M4.75611 16.4944C4.33984 16.4744 3.94474 16.3101 3.6423 16.0313C3.49292 15.8916 3.3741 15.7239 3.29293 15.5384C3.21177 15.353 3.16992 15.1535 3.16992 14.9519C3.16992 14.7503 3.21177 14.5509 3.29293 14.3654C3.3741 14.1799 3.49292 14.0123 3.6423 13.8725L16.8052 0.463138C16.9479 0.316183 17.12 0.199108 17.3109 0.119093C17.5018 0.0390788 17.7076 -0.00219727 17.9155 -0.00219727C18.1234 -0.00219727 18.3291 0.0390788 18.52 0.119093C18.711 0.199108 18.8831 0.316183 19.0258 0.463138L32.2167 13.8929C32.5112 14.1792 32.6766 14.5675 32.6766 14.9723C32.6766 15.3772 32.5112 15.7655 32.2167 16.0518C31.9222 16.3381 31.5228 16.4989 31.1064 16.4989C30.6899 16.4989 30.2905 16.3381 29.9961 16.0518L17.919 3.67757L5.86295 15.8543C5.76101 16.0529 5.60246 16.2188 5.40622 16.3323C5.20999 16.4458 4.98431 16.5021 4.75611 16.4944Z" fill="#4438E0"/>
<path d="M17.9198 11.4073C17.6949 11.4303 17.469 11.3747 17.2823 11.2506C17.1282 11.2506 16.9671 11.1008 16.806 10.9442L16.6519 10.7876C16.6519 10.6377 16.4907 10.6377 16.4907 10.4811C16.4907 10.3245 16.4907 10.3245 16.3296 10.1746V9.86817C16.324 9.66496 16.3637 9.46298 16.4459 9.27608C16.5281 9.08917 16.651 8.92177 16.806 8.78535C16.9671 8.62871 17.1282 8.47888 17.2823 8.47888C17.6893 8.32084 18.1433 8.32084 18.5503 8.47888C18.7114 8.47888 18.8725 8.62871 19.0266 8.78535C19.1952 8.91072 19.3276 9.07626 19.4111 9.26596C19.4945 9.45566 19.5262 9.66309 19.503 9.86817V10.1746C19.503 10.3245 19.503 10.3245 19.3489 10.4811C19.3489 10.6377 19.1878 10.6377 19.1878 10.7876C19.1878 10.8081 19.1836 10.8285 19.1755 10.8475C19.1674 10.8665 19.1555 10.8838 19.1406 10.8983C19.1256 10.9129 19.1078 10.9244 19.0883 10.9323C19.0687 10.9401 19.0478 10.9442 19.0266 10.9442C18.8725 11.1008 18.7114 11.2506 18.5503 11.2506C18.3892 11.2506 18.0739 11.4073 17.9198 11.4073Z" fill="#4438E0"/>
</g>
<defs>
<clipPath id="clip0">
<rect width="36" height="37" fill="white"/>
</clipPath>
</defs>
</svg>
