<svg width="40" height="41" viewBox="0 0 40 41" fill="none" xmlns="http://www.w3.org/2000/svg">
<g clip-path="url(#clip0)">
<path d="M14.1617 14.4939L10.7197 17.893H17.7122L14.1617 14.4939ZM14.1617 14.8882L17.0266 17.6075H11.4122L14.1617 14.8882Z" fill="#4438E0"/>
<path d="M23.7748 13.9702H16.2324L20.0002 17.5597L23.7748 13.9702ZM23.096 14.2557L20.0342 17.1654L16.9792 14.2557H23.096Z" fill="#4438E0"/>
<path d="M10.4414 19.6809L16.9384 27.798L13.6865 19.6809H10.4414ZM11.032 19.9664H13.4964L15.9676 26.1256L11.032 19.9664Z" fill="#4438E0"/>
<path d="M22.2197 17.8862H29.253L25.8586 14.4871L22.2197 17.8862ZM22.9325 17.6074L25.8382 14.8882L28.5537 17.6074H22.9325Z" fill="#4438E0"/>
<path d="M13.8084 11.897L7.01953 18.6952L20.027 34.9293L33.0345 18.6952L26.2456 11.897H13.8084ZM19.9998 34.4942L7.37257 18.736L13.9238 12.1825H26.0827L32.6271 18.736L19.9998 34.4942Z" fill="#4438E0"/>
<path d="M19.9997 3.86816C15.3113 8.4168 9.34248 11.416 2.89851 12.4611C2.31802 18.0636 3.70884 23.6933 6.83095 28.3786C9.95306 33.0638 14.6106 36.5107 19.9997 38.1243C25.39 36.512 30.0491 33.0657 33.1725 28.3803C36.296 23.6949 37.6877 18.0645 37.1076 12.4611C30.6622 11.4144 24.6917 8.41551 19.9997 3.86816ZM19.9997 37.798C14.7444 36.1968 10.2019 32.8284 7.13944 28.2618C4.07696 23.6952 2.68209 18.2102 3.19043 12.733C9.50809 11.666 15.3623 8.73011 19.9997 4.30324C24.6396 8.73028 30.496 11.6661 36.8157 12.733C37.3224 18.2109 35.926 23.696 32.8624 28.2624C29.7988 32.8288 25.2556 36.1969 19.9997 37.798Z" fill="#4438E0"/>
<path d="M23.0615 27.798L29.5653 19.6809H26.3134L23.0615 27.798ZM28.9746 19.9664L24.0391 26.1256L26.5103 19.9664H28.9746Z" fill="#4438E0"/>
<path d="M15.6211 19.6809L19.9999 30.6736L24.3855 19.6809H15.6211ZM16.042 19.9664H23.9646L19.9999 29.9326L16.042 19.9664Z" fill="#4438E0"/>
<path d="M39.8577 12.1687L39.6269 10L37.5223 9.70771C31.6445 8.74427 26.1986 6.01281 21.9079 1.87618L20.0003 0.0202637L18.0723 1.89658C13.7919 6.02745 8.35782 8.75652 2.4918 9.7213L0.319351 10.0204L0.142834 12.1891C-0.499283 18.4307 1.05163 24.7013 4.52858 29.9215C8.00553 35.1416 13.191 38.9846 19.1924 40.7891L20.0003 41.0203L20.8217 40.7891C26.8258 38.9838 32.0126 35.137 35.4876 29.9123C38.9627 24.6876 40.5082 18.4123 39.8577 12.1687ZM20.7335 40.4696L20.0003 40.6735L19.2739 40.4696C13.3463 38.6807 8.22575 34.8809 4.79166 29.7227C1.35757 24.5645 -0.175709 18.3698 0.455137 12.2027L0.611268 10.272L2.53932 10.0136C8.46681 9.02883 13.9577 6.27012 18.2895 2.10051L20.0003 0.434944L21.7179 2.10051C26.0487 6.27152 31.54 9.03047 37.468 10.0136L39.3417 10.272L39.5454 12.2027C40.1793 18.3693 38.648 24.5645 35.2149 29.7232C31.7817 34.8819 26.6612 38.6818 20.7335 40.4696Z" fill="#4438E0"/>
<path d="M13.9243 12.1824L7.37305 18.7358L20.0003 34.4941L32.648 18.7358L26.1035 12.1824H13.9243ZM23.7749 13.9703L20.0003 17.5597L16.2325 13.9703H23.7749ZM14.1619 14.4938L17.7396 17.8929H10.72L14.1619 14.4938ZM10.4416 19.6808H13.6867L16.9385 27.7978L10.4416 19.6808ZM15.6215 19.6808H24.3859L20.0003 30.6735L15.6215 19.6808ZM23.0892 27.7978L26.3411 19.6808H29.593L23.0892 27.7978ZM22.2474 17.8861L25.8727 14.487L29.2671 17.8861H22.2474Z" fill="#4438E0"/>
<path d="M39.3418 10.2721L37.468 10.0138C31.54 9.03058 26.0487 6.27164 21.7179 2.10063L20.0003 0.435059L18.2895 2.10063C13.9577 6.27023 8.46682 9.02894 2.53934 10.0138L0.611283 10.2721L0.455152 12.2028C-0.175694 18.3699 1.35758 24.5646 4.79167 29.7228C8.22576 34.881 13.3463 38.6809 19.2739 40.4697L20.0003 40.6737L20.7335 40.4697C26.6612 38.6819 31.7817 34.882 35.2149 29.7233C38.6481 24.5646 40.1793 18.3695 39.5454 12.2028L39.3418 10.2721ZM20.0003 38.1447C14.6112 36.5311 9.95367 33.0842 6.83156 28.399C3.70946 23.7137 2.31864 18.084 2.89913 12.4815C9.3431 11.4364 15.3119 8.43719 20.0003 3.88856C24.6923 8.4359 30.6628 11.4348 37.1082 12.4815C37.6834 18.0816 36.2892 23.7072 33.1661 28.3883C30.0431 33.0694 25.3869 36.5126 20.0003 38.1243V38.1447Z" fill="#4438E0"/>
</g>
<defs>
<clipPath id="clip0">
<rect width="40" height="41" fill="white"/>
</clipPath>
</defs>
</svg>
