<svg width="40" height="29" viewBox="0 0 40 29" fill="none" xmlns="http://www.w3.org/2000/svg">
<g clip-path="url(#clip0)">
<path d="M7.84922 29C6.92167 28.9976 6.01565 28.7209 5.24558 28.205C4.47552 27.689 3.87597 26.9569 3.52267 26.101C3.16937 25.2452 3.07817 24.3041 3.26059 23.3966C3.44301 22.4891 3.89086 21.6559 4.54758 21.0022C5.2043 20.3486 6.04041 19.9038 6.95031 19.7241C7.8602 19.5444 8.80307 19.6378 9.65979 19.9926C10.5165 20.3474 11.2486 20.9475 11.7637 21.7173C12.2788 22.4871 12.5537 23.3919 12.5537 24.3175C12.5505 25.5605 12.0534 26.7514 11.1715 27.6292C10.2896 28.507 9.09482 29 7.84922 29ZM7.84922 22.1935C7.43092 22.2018 7.02436 22.3329 6.68033 22.5705C6.33631 22.8081 6.07007 23.1416 5.91491 23.5293C5.75975 23.9171 5.72253 24.3418 5.80792 24.7505C5.89331 25.1592 6.09751 25.5338 6.395 25.8274C6.69249 26.1209 7.07008 26.3205 7.48059 26.4011C7.89109 26.4817 8.31632 26.4398 8.7031 26.2806C9.08988 26.1215 9.42108 25.8521 9.6553 25.5062C9.88953 25.1602 10.0164 24.7531 10.02 24.3356C10.0217 24.0518 9.9665 23.7705 9.85768 23.5083C9.74887 23.2461 9.58863 23.0082 9.3864 22.8086C9.18416 22.6091 8.94401 22.4518 8.68003 22.3462C8.41606 22.2406 8.13359 22.1886 7.84922 22.1935Z" fill="#4438E0"/>
<path d="M4.43236 25.6752H1.28193C0.941942 25.6752 0.615884 25.5404 0.375475 25.3005C0.135065 25.0606 0 24.7352 0 24.3959V13.0518C0.000863122 12.7777 0.0898978 12.5112 0.253976 12.2915L5.78685 4.86349C5.90703 4.70476 6.06233 4.57588 6.24064 4.48691C6.41896 4.39794 6.61547 4.35128 6.81483 4.35059H14.4278V6.90905H7.47393L2.56388 13.4742V23.1288H4.43236V24.3356H5.71429V24.3839C5.71948 24.5542 5.68999 24.7239 5.62764 24.8826C5.56528 25.0413 5.47133 25.1857 5.35148 25.3071C5.23019 25.4259 5.08653 25.5196 4.92878 25.5828C4.77103 25.646 4.60232 25.6774 4.43236 25.6752Z" fill="#4438E0"/>
<path d="M14.4464 25.6751H11.2718C11.1005 25.6749 10.931 25.6406 10.7732 25.5743C10.6154 25.508 10.4724 25.411 10.3526 25.2889C10.2328 25.1674 10.1388 25.023 10.0765 24.8643C10.0141 24.7057 9.98466 24.536 9.98984 24.3657V24.3355H11.2718V23.1287H14.4464V25.6751Z" fill="#4438E0"/>
<path d="M30.7306 29C29.8015 29.0012 28.893 28.7271 28.1201 28.2125C27.3473 27.6979 26.7449 26.9659 26.3894 26.1094C26.0339 25.2528 25.9411 24.3102 26.123 23.401C26.3048 22.4918 26.7531 21.6569 27.4109 21.0022C28.0687 20.3475 28.9065 19.9023 29.8181 19.7232C30.7296 19.5441 31.674 19.6391 32.5314 19.9961C33.3889 20.3531 34.1208 20.9561 34.6345 21.7286C35.1482 22.5011 35.4205 23.4085 35.4169 24.3356C35.4105 25.5728 34.9144 26.7573 34.0366 27.631C33.1587 28.5047 31.9704 28.9968 30.7306 29ZM30.7306 22.1935C30.3099 22.1947 29.899 22.3203 29.5497 22.5544C29.2005 22.7885 28.9286 23.1206 28.7685 23.5088C28.6083 23.8971 28.567 24.3239 28.6498 24.7356C28.7326 25.1472 28.9358 25.5251 29.2337 25.8215C29.5316 26.118 29.9109 26.3196 30.3236 26.4011C30.7363 26.4826 31.164 26.4402 31.5526 26.2792C31.9412 26.1183 32.2732 25.8461 32.5068 25.4969C32.7405 25.1477 32.8651 24.7373 32.8651 24.3175C32.8635 23.7536 32.6379 23.2134 32.2378 22.8152C31.8377 22.4171 31.2957 22.1935 30.7306 22.1935Z" fill="#4438E0"/>
<path d="M38.7241 25.6752H34.1467C33.9754 25.675 33.8059 25.6408 33.6481 25.5745C33.4903 25.5082 33.3473 25.4111 33.2275 25.289C32.99 25.0406 32.8597 24.7091 32.8647 24.3658V24.3356H34.1467V23.1288H37.4422V2.55846H15.7279V23.1288H27.3137V24.3356H28.5956V24.3839C28.6007 24.7272 28.4704 25.0587 28.2328 25.3071C28.113 25.4292 27.9701 25.5263 27.8123 25.5926C27.6544 25.6589 27.485 25.6931 27.3137 25.6933H14.446C14.106 25.6933 13.7799 25.5585 13.5395 25.3186C13.2991 25.0787 13.1641 24.7533 13.1641 24.4141V1.27923C13.1641 0.939957 13.2991 0.614568 13.5395 0.374665C13.7799 0.134762 14.106 0 14.446 0H38.7241C39.0641 0 39.3902 0.134762 39.6306 0.374665C39.871 0.614568 40.0061 0.939957 40.0061 1.27923V24.396C40.0061 24.7352 39.871 25.0606 39.6306 25.3005C39.3902 25.5404 39.0641 25.6752 38.7241 25.6752Z" fill="#4438E0"/>
<path d="M10.02 16.0387H1.28223V13.4742H8.71988V5.62988H11.2837V14.7595C11.2838 15.0957 11.1512 15.4183 10.9147 15.6577C10.6782 15.8971 10.3568 16.034 10.02 16.0387Z" fill="#4438E0"/>
<path d="M31.8852 6.48071H29.3213V15.8638H31.8852V6.48071Z" fill="#4438E0"/>
<path d="M30.5792 17.0948C30.2424 17.0938 29.9191 16.9618 29.6783 16.7267L26.9209 14.0053L28.735 12.1951L30.5974 14.0355L32.4477 12.2252L34.2618 14.0355L31.5105 16.7146C31.3885 16.8368 31.2433 16.9334 31.0834 16.9987C30.9235 17.064 30.752 17.0967 30.5792 17.0948Z" fill="#4438E0"/>
<path d="M23.6732 6.99341H21.1094V16.7144H23.6732V6.99341Z" fill="#4438E0"/>
<path d="M20.3353 10.2158L18.751 8.2004L21.6172 5.96172C21.8425 5.78851 22.1189 5.69458 22.4033 5.69458C22.6877 5.69458 22.9641 5.78851 23.1894 5.96172L26.0556 8.16419L24.4955 10.1916L22.4154 8.59865L20.3353 10.2158Z" fill="#4438E0"/>
</g>
<defs>
<clipPath id="clip0">
<rect width="40" height="29" fill="white"/>
</clipPath>
</defs>
</svg>
